<svg width="31" height="32" viewBox="0 0 31 32" fill="none" xmlns="http://www.w3.org/2000/svg">
<path d="M11.2297 1.81101C8.13418 2.8801 5.46457 4.90927 3.61304 7.60046C1.76151 10.2917 0.825651 13.503 0.942924 16.7629C1.0602 20.0227 2.22442 23.1592 4.26459 25.7116C6.30476 28.2641 9.11334 30.0979 12.2778 30.9438C14.8433 31.6028 17.5312 31.6318 20.1104 31.0282C22.4469 30.5057 24.607 29.3881 26.3793 27.7847C28.2239 26.0651 29.5628 23.8774 30.2521 21.457C31.001 18.8248 31.1343 16.0568 30.6418 13.3653H16.2352V19.3148H24.5785C24.4118 20.2637 24.0545 21.1693 23.5279 21.9775C23.0014 22.7857 22.3165 23.4799 21.5142 24.0184C20.4956 24.6896 19.347 25.1411 18.1425 25.3438C16.9346 25.5674 15.6956 25.5674 14.4877 25.3438C13.2633 25.092 12.1051 24.589 11.0869 23.8666C9.45107 22.7138 8.22276 21.0761 7.57728 19.1871C6.92107 17.2627 6.92107 15.1765 7.57728 13.2521C8.03674 11.9032 8.7963 10.675 9.79925 9.65927C10.947 8.47552 12.4001 7.62937 13.9991 7.21365C15.5981 6.79793 17.2813 6.82872 18.8638 7.30262C20.1002 7.68027 21.2308 8.34041 22.1653 9.23035C23.1061 8.29862 24.0452 7.36447 24.9827 6.42792C25.4668 5.9243 25.9945 5.44478 26.4713 4.92911C25.0445 3.60745 23.3699 2.57898 21.5433 1.90257C18.2169 0.700128 14.5772 0.667814 11.2297 1.81101Z" fill="white"/>
<path d="M11.1595 1.80058C14.5461 0.672488 18.2287 0.703515 21.5946 1.8885C23.4431 2.56004 25.1367 3.57913 26.5783 4.88728C26.0885 5.39579 25.5718 5.87103 25.0722 6.36529C24.122 7.28567 23.1726 8.20289 22.224 9.11694C21.2784 8.23935 20.1345 7.58838 18.8836 7.21597C17.2829 6.747 15.58 6.71489 13.9617 7.12316C12.3434 7.53143 10.8723 8.3643 9.70969 9.5304C8.69491 10.5321 7.9264 11.7432 7.46152 13.0733L2.38477 9.25951C4.20193 5.76306 7.34825 3.08854 11.1595 1.80058Z" fill="#E33629"/>
<path d="M1.23889 12.995C1.51345 11.6778 1.96964 10.4022 2.59521 9.20239L7.7073 13.0403C7.03873 14.9452 7.03873 17.0103 7.7073 18.9153C6.00409 20.1874 4.30006 21.4659 2.59521 22.7508C1.02965 19.7365 0.552176 16.3022 1.23889 12.995Z" fill="#F8BD00"/>
<path d="M16.4181 13.0734H30.6454C31.1318 15.7829 31.0002 18.5694 30.2606 21.2193C29.5799 23.656 28.2576 25.8583 26.436 27.5895C24.8369 26.3232 23.2305 25.0666 21.6314 23.8004C22.4242 23.2577 23.1009 22.5581 23.6209 21.7436C24.1409 20.9291 24.4935 20.0164 24.6576 19.0603H16.4181C16.4157 17.0663 16.4181 15.0698 16.4181 13.0734Z" fill="#587DBD"/>
<path d="M2.38477 22.8554C4.08351 21.5368 5.78143 20.2116 7.47853 18.8798C8.13511 20.8186 9.38385 22.4991 11.0464 23.6812C12.0832 24.4189 13.2615 24.9309 14.5061 25.1844C15.7324 25.4139 16.9902 25.4139 18.2165 25.1844C19.4392 24.9765 20.6052 24.5133 21.6394 23.8246C23.2832 25.1152 24.9345 26.3959 26.5783 27.6865C24.7794 29.3325 22.5864 30.4801 20.2142 31.0169C17.5958 31.6362 14.8671 31.6065 12.2627 30.9303C10.2028 30.3769 8.27878 29.4014 6.61114 28.0648C4.84621 26.6546 3.40459 24.8777 2.38477 22.8554Z" fill="#319F43"/>
</svg>
