<svg width="31" height="31" viewBox="0 0 31 31" fill="none" xmlns="http://www.w3.org/2000/svg">
<path d="M23.9019 0.218506H7.96436C4.0811 0.218506 0.933105 3.3665 0.933105 7.24976V23.1873C0.933105 27.0705 4.0811 30.2185 7.96436 30.2185H23.9019C27.7851 30.2185 30.9331 27.0705 30.9331 23.1873V7.24976C30.9331 3.3665 27.7851 0.218506 23.9019 0.218506Z" fill="white"/>
<path d="M23.9019 0.218506H7.96436C4.0811 0.218506 0.933105 3.3665 0.933105 7.24976V23.1873C0.933105 27.0705 4.0811 30.2185 7.96436 30.2185H23.9019C27.7851 30.2185 30.9331 27.0705 30.9331 23.1873V7.24976C30.9331 3.3665 27.7851 0.218506 23.9019 0.218506Z" fill="#0A66C2" fill-opacity="0.2"/>
<path d="M22.5794 25.7285H26.0095C26.1338 25.7285 26.253 25.6791 26.3409 25.5912C26.4288 25.5033 26.4782 25.3841 26.4782 25.2598L26.48 18.0127C26.48 14.2249 25.6638 11.3133 21.2372 11.3133C19.5546 11.2508 17.9677 12.1182 17.1114 13.5666C17.1072 13.5737 17.1009 13.5791 17.0933 13.5822C17.0857 13.5853 17.0773 13.5858 17.0694 13.5837C17.0615 13.5815 17.0545 13.5769 17.0495 13.5704C17.0445 13.5639 17.0418 13.556 17.0417 13.5478V12.1318C17.0417 12.0075 16.9923 11.8882 16.9044 11.8003C16.8165 11.7124 16.6973 11.663 16.573 11.663H13.3178C13.1935 11.663 13.0743 11.7124 12.9864 11.8003C12.8985 11.8882 12.8491 12.0075 12.8491 12.1318V25.2591C12.8491 25.3834 12.8985 25.5027 12.9864 25.5906C13.0743 25.6785 13.1935 25.7279 13.3178 25.7279H16.7477C16.872 25.7279 16.9912 25.6785 17.0791 25.5906C17.167 25.5027 17.2164 25.3834 17.2164 25.2591V18.7701C17.2164 16.9353 17.5645 15.1584 19.8392 15.1584C22.0816 15.1584 22.1106 17.2579 22.1106 18.8889V25.2597C22.1106 25.384 22.16 25.5033 22.2479 25.5912C22.3358 25.6791 22.4551 25.7285 22.5794 25.7285ZM5.38623 7.20604C5.38623 8.59647 6.5308 9.74046 7.92123 9.74046C9.31131 9.74034 10.4552 8.59565 10.4552 7.20558C10.4549 5.8155 9.31096 4.67163 7.92076 4.67163C6.53021 4.67163 5.38623 5.81573 5.38623 7.20604ZM6.20174 25.7285H9.63615C9.76047 25.7285 9.8797 25.6791 9.96761 25.5912C10.0555 25.5033 10.1049 25.384 10.1049 25.2597V12.1318C10.1049 12.0075 10.0555 11.8882 9.96761 11.8003C9.8797 11.7124 9.76047 11.663 9.63615 11.663H6.20174C6.07742 11.663 5.95819 11.7124 5.87028 11.8003C5.78237 11.8882 5.73299 12.0075 5.73299 12.1318V25.2597C5.73299 25.384 5.78237 25.5033 5.87028 25.5912C5.95819 25.6791 6.07742 25.7285 6.20174 25.7285Z" fill="white"/>
</svg>
