<svg width="43" height="43" viewBox="0 0 43 43" fill="none" xmlns="http://www.w3.org/2000/svg">
<circle cx="21.5" cy="21.9427" r="20.5" stroke="black" stroke-opacity="0.2"/>
<path d="M36 16.9427L14.7839 25.8417C13.0246 26.5749 11.5468 26.9427 10.3517 26.9427C8.99837 26.9427 8.01599 26.4761 7.40699 25.5417C7.02394 24.9418 6.91157 24.1812 7.06865 23.2587C7.22574 22.3362 7.64382 21.3541 8.32049 20.309C8.88479 19.4639 9.80917 18.3533 11.0961 16.9761C10.6596 17.653 10.3395 18.3962 10.1487 19.1758C9.81038 20.5983 10.1149 21.6422 11.0622 22.3088C11.5129 22.6195 12.1328 22.7754 12.9231 22.7754C13.5538 22.7754 14.2643 22.6754 15.0546 22.4754L36 16.9427Z" fill="black"/>
</svg>
